<svg width="927" height="729" viewBox="0 0 927 729" fill="none" xmlns="http://www.w3.org/2000/svg">
<rect x="1" width="925" height="728.178" rx="28.4444" fill="#5468E7"/>
<path opacity="0.2" d="M134.466 0.0165644C112.941 4.66012 95.7605 22.1463 89.3534 42.9108C82.7187 64.4219 89.4245 86.9997 105.986 102.075C121.979 116.617 145.808 123.48 166.502 115.529C185.858 108.091 202.676 86.8788 193.332 65.6735C185.439 47.7677 162.043 37.3001 143.768 45.1152C125.492 52.9303 116.61 74.8041 119.952 93.6912C124.176 117.521 147.33 130.669 168.5 137.332C194.143 145.453 224.016 146.648 245.023 165.336C261.584 180.07 269.705 203.025 268.056 224.948C267.301 235.934 263.818 246.559 257.922 255.86C251.401 265.951 240.272 274.591 227.999 275.771C214.345 277.087 204.532 266.612 203.544 253.464C202.47 239.007 211.231 226.37 219.558 215.398C235.465 194.449 255.824 173.592 282.249 167.135C305.652 161.446 333.798 167.889 346.207 190.168C360.272 215.426 350.26 245.57 335.348 267.857C327.256 279.945 317.634 290.975 308.162 301.99C298.534 313.19 288.82 324.333 279.718 335.988C262.495 358.089 247.469 382.345 240.991 409.894C234.911 435.736 236.724 463.526 251.067 486.417C264.393 507.75 285.912 522.804 308.795 532.454C337.382 544.543 368.457 549.293 398.751 555.081L495.917 573.656L542.509 582.559C543.512 582.751 543.931 581.215 542.936 581.016L446.936 562.662C415.704 556.696 384.251 551.412 353.232 544.415C325.62 538.178 297.922 529.097 275.572 511.128C265.673 503.17 256.969 493.62 250.648 482.555C243.861 470.469 240.005 456.958 239.391 443.11C236.297 382.872 280.912 336.713 316.987 294.125C334.168 273.83 351.832 251.231 354.192 223.725C355.224 211.835 353.339 199.405 347.373 188.945C341.876 179.506 333.381 172.176 323.238 168.123C301.35 159.128 276.696 164.013 257.225 176.408C246.345 183.355 236.866 192.301 228.404 201.972C219.764 211.857 210.726 222.715 205.478 234.84C201.012 245.165 199.995 257.887 206.58 267.601C212.468 276.276 222.893 279.021 232.756 276.539C254.239 271.135 266.648 249.382 269.272 228.717C271.867 208.223 265.872 186.498 252.475 170.683C235.408 150.566 208.77 145.737 184.415 139.949C161.346 134.473 133.023 125.236 123.615 100.923C116.098 81.5028 124.162 55.7677 143.718 46.8788C163.472 37.8832 190.395 51.8566 194.008 73.3961C198.345 99.2095 170.143 117.556 147.352 117.293C124.56 117.03 102.274 102.36 92.8805 81.581C83.1169 59.949 89.972 34.349 106.136 17.7517C113.911 9.64656 123.908 4.02062 134.872 1.58101C135.888 1.36056 135.448 -0.175436 134.466 0.0165644Z" fill="#D1ECFD"/>
<path opacity="0.2" d="M1.32096 364.5H925.679" stroke="white" stroke-width="0.711111" stroke-linecap="square"/>
<path opacity="0.2" d="M463.356 727.823V365.154" stroke="white" stroke-width="0.711111" stroke-linecap="square"/>
</svg>
